<?xml version="1.0" encoding="UTF-8" standalone="no"?>
<!-- Created with Inkscape (http://www.inkscape.org/) -->

<svg
   xmlns:dc="http://purl.org/dc/elements/1.1/"
   xmlns:cc="http://creativecommons.org/ns#"
   xmlns:rdf="http://www.w3.org/1999/02/22-rdf-syntax-ns#"
   xmlns:svg="http://www.w3.org/2000/svg"
   xmlns="http://www.w3.org/2000/svg"
   xmlns:sodipodi="http://sodipodi.sourceforge.net/DTD/sodipodi-0.dtd"
   xmlns:inkscape="http://www.inkscape.org/namespaces/inkscape"
   width="83.58844mm"
   height="81.977097mm"
   viewBox="0 0 83.58844 81.977097"
   version="1.1"
   id="svg1130"
   inkscape:version="0.92.4 (5da689c313, 2019-01-14)"
   sodipodi:docname="parausolver.svg">
  <defs
     id="defs1124" />
  <sodipodi:namedview
     id="base"
     pagecolor="#ffffff"
     bordercolor="#666666"
     borderopacity="1.0"
     inkscape:pageopacity="0.0"
     inkscape:pageshadow="2"
     inkscape:zoom="1.4"
     inkscape:cx="75.910399"
     inkscape:cy="105.98599"
     inkscape:document-units="mm"
     inkscape:current-layer="letters"
     showgrid="false"
     inkscape:window-width="1600"
     inkscape:window-height="847"
     inkscape:window-x="1912"
     inkscape:window-y="428"
     inkscape:window-maximized="1"
     fit-margin-top="1"
     fit-margin-left="1"
     fit-margin-right="1"
     fit-margin-bottom="1" />
  <metadata
     id="metadata1127">
    <rdf:RDF>
      <cc:Work
         rdf:about="">
        <dc:format>image/svg+xml</dc:format>
        <dc:type
           rdf:resource="http://purl.org/dc/dcmitype/StillImage" />
        <dc:title />
      </cc:Work>
    </rdf:RDF>
  </metadata>
  <g
     inkscape:groupmode="layer"
     id="layer2"
     inkscape:label="hex-draft"
     style="display:none"
     transform="translate(-6.2574263,-4.8115399)"
     sodipodi:insensitive="true">
    <path
       inkscape:connector-curvature="0"
       id="path1707"
       d="m 22.044659,131.62916 c 0,5.63077 0,11.26154 0,16.89231 4.87634,2.81497 9.752679,5.62996 14.629016,8.44492 4.87622,-2.81496 9.75244,-5.62995 14.62866,-8.44492 0,-5.63077 0,-11.26154 0,-16.89231 -4.87622,-2.81496 -9.75244,-5.62995 -14.62866,-8.44491 -4.876337,2.81496 -9.752676,5.62995 -14.629016,8.44491 z"
       style="display:inline;opacity:1;vector-effect:none;fill:none;fill-opacity:1;stroke:#4e9a06;stroke-width:1.26611006;stroke-linecap:round;stroke-linejoin:round;stroke-miterlimit:4;stroke-dasharray:none;stroke-dashoffset:0;stroke-opacity:1" />
    <path
       inkscape:connector-curvature="0"
       id="path1709"
       d="m 54.160925,131.62916 c 0,5.63077 0,11.26154 0,16.89231 4.87622,2.81497 9.75244,5.62996 14.62867,8.44492 4.87634,-2.81496 9.75268,-5.62995 14.62901,-8.44492 0,-5.63077 0,-11.26154 0,-16.89231 -4.87633,-2.81496 -9.75267,-5.62995 -14.62901,-8.44491 -4.87623,2.81496 -9.75245,5.62995 -14.62867,8.44491 z"
       style="display:inline;opacity:1;vector-effect:none;fill:none;fill-opacity:1;stroke:#4e9a06;stroke-width:1.26611006;stroke-linecap:round;stroke-linejoin:round;stroke-miterlimit:4;stroke-dasharray:none;stroke-dashoffset:0;stroke-opacity:1" />
    <path
       inkscape:connector-curvature="0"
       id="path1711"
       d="m 70.218895,159.44254 c 0,5.63077 0,11.26154 0,16.8923 4.87633,2.81498 9.75267,5.62996 14.62901,8.44492 4.87622,-2.81496 9.75244,-5.62994 14.62867,-8.44492 0,-5.63076 0,-11.26153 0,-16.8923 -4.87623,-2.81496 -9.75245,-5.62995 -14.62867,-8.44494 -4.87634,2.81499 -9.75268,5.62998 -14.62901,8.44494 z"
       style="display:inline;opacity:1;vector-effect:none;fill:none;fill-opacity:1;stroke:#4e9a06;stroke-width:1.26611006;stroke-linecap:round;stroke-linejoin:round;stroke-miterlimit:4;stroke-dasharray:none;stroke-dashoffset:0;stroke-opacity:1" />
    <path
       inkscape:connector-curvature="0"
       id="path1713"
       d="m 38.102975,159.44254 c 0,5.63077 0,11.26154 0,16.8923 4.87622,2.81498 9.75243,5.62996 14.62866,8.44492 4.87622,-2.81496 9.75244,-5.62994 14.62865,-8.44492 0,-5.63076 0,-11.26153 0,-16.8923 -4.87621,-2.81496 -9.75243,-5.62995 -14.62865,-8.44494 -4.87623,2.81499 -9.75244,5.62998 -14.62866,8.44494 z"
       style="display:inline;opacity:1;vector-effect:none;fill:none;fill-opacity:1;stroke:#edd400;stroke-width:1.26611006;stroke-linecap:round;stroke-linejoin:round;stroke-miterlimit:4;stroke-dasharray:none;stroke-dashoffset:0;stroke-opacity:1" />
    <path
       inkscape:connector-curvature="0"
       id="path1715"
       d="m 5.9867022,159.44254 c 0,5.63077 0,11.26154 0,16.8923 4.8762188,2.81498 9.7524388,5.62996 14.6286648,8.44492 4.876333,-2.81496 9.752672,-5.62994 14.629008,-8.44492 0,-5.63076 0,-11.26153 0,-16.8923 -4.876221,-2.81496 -9.752441,-5.62995 -14.62866,-8.44494 -4.87634,2.81499 -9.752679,5.62998 -14.6290128,8.44494 z"
       style="display:inline;opacity:1;vector-effect:none;fill:none;fill-opacity:1;stroke:#4e9a06;stroke-width:1.26611006;stroke-linecap:round;stroke-linejoin:round;stroke-miterlimit:4;stroke-dasharray:none;stroke-dashoffset:0;stroke-opacity:1" />
    <path
       inkscape:connector-curvature="0"
       id="path1717"
       d="m 54.160925,187.25592 c 0,5.63077 0,11.26154 0,16.89228 4.87622,2.81499 9.75244,5.62995 14.62867,8.44494 4.87634,-2.81499 9.75268,-5.62995 14.62901,-8.44494 0,-5.63074 0,-11.26151 0,-16.89228 -4.87633,-2.81499 -9.75267,-5.62995 -14.62901,-8.44493 -4.87623,2.81498 -9.75245,5.62994 -14.62867,8.44493 z"
       style="display:inline;opacity:1;vector-effect:none;fill:none;fill-opacity:1;stroke:#4e9a06;stroke-width:1.26611006;stroke-linecap:round;stroke-linejoin:round;stroke-miterlimit:4;stroke-dasharray:none;stroke-dashoffset:0;stroke-opacity:1" />
    <path
       inkscape:connector-curvature="0"
       id="path1719"
       d="m 22.045007,187.25592 c 0,5.63077 0,11.26154 0,16.89228 4.876226,2.81499 9.752446,5.62995 14.628668,8.44494 4.87622,-2.81499 9.75244,-5.62995 14.62866,-8.44494 0,-5.63074 0,-11.26151 0,-16.89228 -4.87622,-2.81499 -9.75244,-5.62995 -14.62866,-8.44493 -4.876222,2.81498 -9.752442,5.62994 -14.628668,8.44493 z"
       style="display:inline;opacity:1;vector-effect:none;fill:none;fill-opacity:1;stroke:#4e9a06;stroke-width:1.26611006;stroke-linecap:round;stroke-linejoin:round;stroke-miterlimit:4;stroke-dasharray:none;stroke-dashoffset:0;stroke-opacity:1" />
    <path
       sodipodi:nodetypes="zzzzzzz"
       inkscape:connector-curvature="0"
       id="path1721"
       d="m 27.996033,144.06994 c 0.0559,-4.59765 3.236887,-7.84198 4.157506,-9.43231 0.920614,-1.59032 0.05279,-6.64619 4.204746,-6.73628 4.15198,-0.0901 2.98384,4.57595 3.73231,6.35222 0.74846,1.77628 5.34503,4.28056 5.25986,9.81637 -0.0851,5.53589 -3.95839,8.15679 -8.91343,8.18037 -4.955036,0.0233 -8.496877,-3.58271 -8.440992,-8.18037 z"
       style="display:inline;fill:#4e9a06;fill-opacity:1;fill-rule:evenodd;stroke:none;stroke-width:2.13750863px;stroke-linecap:butt;stroke-linejoin:miter;stroke-opacity:1" />
    <path
       style="display:inline;fill:#4e9a06;fill-opacity:1;fill-rule:evenodd;stroke:none;stroke-width:2.13750863px;stroke-linecap:butt;stroke-linejoin:miter;stroke-opacity:1"
       d="m 60.112305,144.06994 c 0.0559,-4.59765 3.23688,-7.84198 4.1575,-9.43231 0.92062,-1.59032 0.0528,-6.64619 4.20474,-6.73628 4.15199,-0.0901 2.98386,4.57595 3.73231,6.35222 0.74847,1.77628 5.34504,4.28056 5.25988,9.81637 -0.0851,5.53589 -3.9584,8.15679 -8.91344,8.18037 -4.95503,0.0233 -8.49687,-3.58271 -8.44099,-8.18037 z"
       id="path1723"
       inkscape:connector-curvature="0"
       sodipodi:nodetypes="zzzzzzz" />
    <path
       sodipodi:nodetypes="zzzzzzz"
       inkscape:connector-curvature="0"
       id="path1725"
       d="m 76.170265,171.88332 c 0.0559,-4.59766 3.23688,-7.84199 4.15751,-9.43231 0.9206,-1.59032 0.0528,-6.64619 4.20474,-6.73628 4.15197,-0.0901 2.98384,4.57596 3.7323,6.35222 0.74847,1.77628 5.34504,4.28056 5.25987,9.81637 -0.0851,5.53588 -3.95839,8.15679 -8.91343,8.18037 -4.95504,0.0233 -8.49688,-3.58271 -8.44099,-8.18037 z"
       style="display:inline;fill:#4e9a06;fill-opacity:1;fill-rule:evenodd;stroke:none;stroke-width:2.13750863px;stroke-linecap:butt;stroke-linejoin:miter;stroke-opacity:1" />
    <path
       style="display:inline;fill:#4e9a06;fill-opacity:1;fill-rule:evenodd;stroke:none;stroke-width:2.13750863px;stroke-linecap:butt;stroke-linejoin:miter;stroke-opacity:1"
       d="m 60.112305,199.6967 c 0.0559,-4.59766 3.23688,-7.84199 4.1575,-9.43231 0.92062,-1.59033 0.0528,-6.6462 4.20474,-6.73629 4.15199,-0.0901 2.98386,4.57596 3.73231,6.35222 0.74847,1.77628 5.34504,4.28057 5.25988,9.81638 -0.0851,5.53588 -3.9584,8.15678 -8.91344,8.18036 -4.95503,0.0233 -8.49687,-3.58271 -8.44099,-8.18036 z"
       id="path1727"
       inkscape:connector-curvature="0"
       sodipodi:nodetypes="zzzzzzz" />
    <path
       sodipodi:nodetypes="zzzzzzz"
       inkscape:connector-curvature="0"
       id="path1729"
       d="m 27.996204,199.6967 c 0.0559,-4.59766 3.236887,-7.84199 4.157513,-9.43231 0.920607,-1.59033 0.05279,-6.6462 4.204738,-6.73629 4.15198,-0.0901 2.98384,4.57596 3.73231,6.35222 0.74847,1.77628 5.34504,4.28057 5.25987,9.81638 -0.0852,5.53588 -3.9584,8.15678 -8.91343,8.18036 -4.955046,0.0233 -8.496881,-3.58271 -8.441001,-8.18036 z"
       style="display:inline;fill:#4e9a06;fill-opacity:1;fill-rule:evenodd;stroke:none;stroke-width:2.13750863px;stroke-linecap:butt;stroke-linejoin:miter;stroke-opacity:1" />
    <path
       style="display:inline;fill:#4e9a06;fill-opacity:1;fill-rule:evenodd;stroke:none;stroke-width:2.13750863px;stroke-linecap:butt;stroke-linejoin:miter;stroke-opacity:1"
       d="m 11.93807,171.88332 c 0.0559,-4.59766 3.236886,-7.84199 4.157513,-9.43231 0.920607,-1.59032 0.05279,-6.64619 4.204737,-6.73628 4.15198,-0.0901 2.983848,4.57596 3.732309,6.35222 0.748467,1.77628 5.345041,4.28056 5.259869,9.81637 -0.08517,5.53588 -3.958397,8.15679 -8.913432,8.18037 -4.955034,0.0233 -8.496876,-3.58271 -8.440996,-8.18037 z"
       id="path1731"
       inkscape:connector-curvature="0"
       sodipodi:nodetypes="zzzzzzz" />
    <path
       style="display:inline;fill:#edd400;fill-opacity:1;fill-rule:evenodd;stroke:#edd400;stroke-width:2.19581413px;stroke-linecap:butt;stroke-linejoin:miter;stroke-opacity:1"
       d="m 50.873375,158.12316 c -0.0438,0.66476 -6.21224,4.14257 -5.96957,10.61281 0.24266,6.47029 6.17094,8.65992 6.19605,9.23195 0.025,0.57205 0.74215,1.73191 1.3943,1.73191 0.65214,0 1.4752,-1.24617 1.52526,-1.68786 0.05,-0.44172 6.3826,-2.72683 6.54438,-9.74943 0.16178,-7.02258 -7.10842,-9.51838 -7.10201,-10.13938 0.007,-0.62101 -0.11124,-2.04559 -1.24366,-2.04559 -1.13243,0 -1.30104,1.38085 -1.34475,2.04559 z"
       id="path1733"
       inkscape:connector-curvature="0"
       sodipodi:nodetypes="zzzzzzzzz" />
  </g>
  <g
     inkscape:label="fruits"
     inkscape:groupmode="layer"
     id="fruits"
     style="display:inline"
     transform="translate(-6.2574263,-4.8115399)">
    <path
       style="fill:#4e9a06;fill-opacity:1;fill-rule:evenodd;stroke:none;stroke-width:2.13750863px;stroke-linecap:butt;stroke-linejoin:miter;stroke-opacity:1"
       d="m 25.432709,26.743917 c 0.0559,-4.597657 3.236886,-7.841981 4.157505,-9.432313 0.920614,-1.590323 0.05279,-6.6462 4.204742,-6.736278 4.15198,-0.09007 2.98385,4.575953 3.73231,6.35221 0.74846,1.776279 5.34504,4.280568 5.25987,9.816381 -0.0852,5.535882 -3.9584,8.156781 -8.91343,8.180362 -4.955041,0.0233 -8.496883,-3.582707 -8.440997,-8.180362 z"
       id="path3460-4"
       inkscape:connector-curvature="0"
       sodipodi:nodetypes="zzzzzzz" />
    <path
       sodipodi:nodetypes="zzzzzzz"
       inkscape:connector-curvature="0"
       id="path1090"
       d="m 53.31564,26.743917 c 0.0559,-4.597657 3.23688,-7.841981 4.15751,-9.432313 0.92062,-1.590323 0.0528,-6.6462 4.20474,-6.736278 4.15199,-0.09007 2.98386,4.575953 3.7323,6.35221 0.74848,1.776279 5.34505,4.280568 5.25988,9.816381 -0.0851,5.535882 -3.95839,8.156781 -8.91344,8.180362 -4.95503,0.0233 -8.49686,-3.582707 -8.44099,-8.180362 z"
       style="fill:#4e9a06;fill-opacity:1;fill-rule:evenodd;stroke:none;stroke-width:2.13750863px;stroke-linecap:butt;stroke-linejoin:miter;stroke-opacity:1" />
    <path
       style="fill:#4e9a06;fill-opacity:1;fill-rule:evenodd;stroke:none;stroke-width:2.13750863px;stroke-linecap:butt;stroke-linejoin:miter;stroke-opacity:1"
       d="m 68.315276,49.794788 c 0.0559,-4.597662 3.23688,-7.841989 4.15751,-9.432309 0.9206,-1.59032 0.0528,-6.646196 4.20474,-6.736279 4.15197,-0.0901 2.98384,4.575953 3.7323,6.352217 0.74846,1.776277 5.34503,4.280559 5.25987,9.816371 -0.0851,5.535879 -3.9584,8.156789 -8.91343,8.18037 -4.95504,0.0233 -8.49688,-3.582708 -8.44099,-8.18037 z"
       id="path1092"
       inkscape:connector-curvature="0"
       sodipodi:nodetypes="zzzzzzz" />
    <path
       sodipodi:nodetypes="zzzzzzz"
       inkscape:connector-curvature="0"
       id="path1094"
       d="m 53.31564,72.845671 c 0.0559,-4.597666 3.23688,-7.841993 4.15751,-9.432313 0.92062,-1.590334 0.0528,-6.646209 4.20474,-6.736292 4.15199,-0.0901 2.98386,4.575952 3.7323,6.352216 0.74848,1.776278 5.34505,4.280573 5.25988,9.816389 -0.0851,5.53588 -3.95839,8.15677 -8.91344,8.18035 -4.95503,0.0233 -8.49686,-3.58271 -8.44099,-8.18035 z"
       style="fill:#4e9a06;fill-opacity:1;fill-rule:evenodd;stroke:none;stroke-width:2.13750863px;stroke-linecap:butt;stroke-linejoin:miter;stroke-opacity:1" />
    <path
       style="fill:#4e9a06;fill-opacity:1;fill-rule:evenodd;stroke:none;stroke-width:2.13750863px;stroke-linecap:butt;stroke-linejoin:miter;stroke-opacity:1"
       d="m 25.43288,72.845671 c 0.0559,-4.597666 3.236886,-7.841993 4.157512,-9.432313 0.920607,-1.590334 0.05279,-6.646209 4.204734,-6.736292 4.15198,-0.0901 2.98384,4.575952 3.73231,6.352216 0.74847,1.776278 5.34504,4.280573 5.25987,9.816389 -0.0852,5.53588 -3.9584,8.15677 -8.91343,8.18035 -4.955042,0.0233 -8.496876,-3.58271 -8.440996,-8.18035 z"
       id="path1096"
       inkscape:connector-curvature="0"
       sodipodi:nodetypes="zzzzzzz" />
    <path
       sodipodi:nodetypes="zzzzzzz"
       inkscape:connector-curvature="0"
       id="path1098"
       d="m 10.433078,49.794788 c 0.0559,-4.597662 3.236887,-7.841989 4.157514,-9.432309 0.920607,-1.59032 0.05279,-6.646196 4.204737,-6.736279 4.15198,-0.0901 2.983849,4.575953 3.732309,6.352217 0.748467,1.776277 5.345041,4.280559 5.25987,9.816371 -0.08517,5.535879 -3.958398,8.156789 -8.913432,8.18037 -4.955035,0.0233 -8.496878,-3.582708 -8.440998,-8.18037 z"
       style="fill:#4e9a06;fill-opacity:1;fill-rule:evenodd;stroke:none;stroke-width:2.13750863px;stroke-linecap:butt;stroke-linejoin:miter;stroke-opacity:1" />
    <path
       sodipodi:nodetypes="zzzzzzzzz"
       inkscape:connector-curvature="0"
       id="path1100"
       d="m 46.193378,36.034622 c -0.0438,0.664762 -6.21224,4.142573 -5.96957,10.612817 0.24266,6.470285 6.17095,8.659916 6.19605,9.231942 0.0251,0.572053 0.74216,1.731916 1.39431,1.731916 0.65214,0 1.4752,-1.246175 1.52525,-1.687864 0.05,-0.441716 6.3826,-2.726831 6.54439,-9.749425 0.16178,-7.022582 -7.10843,-9.518379 -7.10202,-10.139386 0.007,-0.621007 -0.11124,-2.045584 -1.24365,-2.045584 -1.13243,0 -1.30104,1.380848 -1.34476,2.045584 z"
       style="fill:#edd400;fill-opacity:1;fill-rule:evenodd;stroke:#edd400;stroke-width:2.19581413px;stroke-linecap:butt;stroke-linejoin:miter;stroke-opacity:1" />
  </g>
  <g
     inkscape:groupmode="layer"
     id="letters"
     inkscape:label="letters"
     style="display:inline">
    <text
       xml:space="preserve"
       style="font-style:normal;font-variant:normal;font-weight:normal;font-stretch:normal;font-size:13.9401741px;line-height:1.25;font-family:sans-serif;-inkscape-font-specification:'sans-serif, Normal';font-variant-ligatures:normal;font-variant-caps:normal;font-variant-numeric:normal;font-feature-settings:normal;text-align:center;letter-spacing:0px;word-spacing:0px;writing-mode:lr-tb;text-anchor:middle;fill:#ffffff;fill-opacity:1;stroke:none;stroke-width:0.6534456"
       x="27.743847"
       y="25.664736"
       id="letter-6"><tspan
         sodipodi:role="line"
         id="tspan1751"
         x="27.743847"
         y="25.664736"
         style="text-align:center;text-anchor:middle;fill:#ffffff;stroke-width:0.6534456">A</tspan></text>
    <text
       xml:space="preserve"
       style="font-style:normal;font-variant:normal;font-weight:normal;font-stretch:normal;font-size:5.64444447px;line-height:1.25;font-family:sans-serif;-inkscape-font-specification:'sans-serif, Normal';font-variant-ligatures:normal;font-variant-caps:normal;font-variant-numeric:normal;font-feature-settings:normal;text-align:start;letter-spacing:0px;word-spacing:0px;writing-mode:lr-tb;text-anchor:start;fill:#000000;fill-opacity:1;stroke:none;stroke-width:0.26458332"
       x="23.623512"
       y="30.194355"
       id="text1757"><tspan
         sodipodi:role="line"
         id="tspan1755"
         x="23.623512"
         y="35.188366"
         style="stroke-width:0.26458332" /></text>
    <text
       id="letter-1"
       y="25.664736"
       x="55.449497"
       style="font-style:normal;font-variant:normal;font-weight:normal;font-stretch:normal;font-size:13.9401741px;line-height:1.25;font-family:sans-serif;-inkscape-font-specification:'sans-serif, Normal';font-variant-ligatures:normal;font-variant-caps:normal;font-variant-numeric:normal;font-feature-settings:normal;text-align:center;letter-spacing:0px;word-spacing:0px;writing-mode:lr-tb;text-anchor:middle;fill:#ffffff;fill-opacity:1;stroke:none;stroke-width:0.6534456"
       xml:space="preserve"><tspan
         style="text-align:center;text-anchor:middle;fill:#ffffff;stroke-width:0.6534456"
         y="25.664736"
         x="55.449497"
         id="tspan1759"
         sodipodi:role="line">A</tspan></text>
    <text
       xml:space="preserve"
       style="font-style:normal;font-variant:normal;font-weight:normal;font-stretch:normal;font-size:13.9401741px;line-height:1.25;font-family:sans-serif;-inkscape-font-specification:'sans-serif, Normal';font-variant-ligatures:normal;font-variant-caps:normal;font-variant-numeric:normal;font-feature-settings:normal;text-align:center;letter-spacing:0px;word-spacing:0px;writing-mode:lr-tb;text-anchor:middle;fill:#ffffff;fill-opacity:1;stroke:none;stroke-width:0.6534456"
       x="12.549199"
       y="48.683483"
       id="letter-5"><tspan
         sodipodi:role="line"
         id="tspan1763"
         x="12.549199"
         y="48.683483"
         style="text-align:center;text-anchor:middle;fill:#ffffff;stroke-width:0.6534456">A</tspan></text>
    <text
       id="letter-main"
       y="46.98259"
       x="41.502178"
       style="font-style:normal;font-variant:normal;font-weight:normal;font-stretch:normal;font-size:13.9401741px;line-height:1.25;font-family:sans-serif;-inkscape-font-specification:'sans-serif, Normal';font-variant-ligatures:normal;font-variant-caps:normal;font-variant-numeric:normal;font-feature-settings:normal;text-align:center;letter-spacing:0px;word-spacing:0px;writing-mode:lr-tb;text-anchor:middle;fill:#ffffff;fill-opacity:1;stroke:none;stroke-width:0.6534456"
       xml:space="preserve"><tspan
         style="text-align:center;text-anchor:middle;fill:#ffffff;stroke-width:0.6534456"
         y="46.98259"
         x="41.502178"
         id="tspan1767"
         sodipodi:role="line">A</tspan></text>
    <text
       id="letter-2"
       y="48.683483"
       x="70.455154"
       style="font-style:normal;font-variant:normal;font-weight:normal;font-stretch:normal;font-size:13.9401741px;line-height:1.25;font-family:sans-serif;-inkscape-font-specification:'sans-serif, Normal';font-variant-ligatures:normal;font-variant-caps:normal;font-variant-numeric:normal;font-feature-settings:normal;text-align:center;letter-spacing:0px;word-spacing:0px;writing-mode:lr-tb;text-anchor:middle;fill:#ffffff;fill-opacity:1;stroke:none;stroke-width:0.6534456"
       xml:space="preserve"><tspan
         style="text-align:center;text-anchor:middle;fill:#ffffff;stroke-width:0.6534456"
         y="48.683483"
         x="70.455154"
         id="tspan1771"
         sodipodi:role="line">A</tspan></text>
    <text
       id="letter-4"
       y="70.568298"
       x="27.743847"
       style="font-style:normal;font-variant:normal;font-weight:normal;font-stretch:normal;font-size:13.9401741px;line-height:1.25;font-family:sans-serif;-inkscape-font-specification:'sans-serif, Normal';font-variant-ligatures:normal;font-variant-caps:normal;font-variant-numeric:normal;font-feature-settings:normal;text-align:center;letter-spacing:0px;word-spacing:0px;writing-mode:lr-tb;text-anchor:middle;fill:#ffffff;fill-opacity:1;stroke:none;stroke-width:0.6534456"
       xml:space="preserve"><tspan
         style="text-align:center;text-anchor:middle;fill:#ffffff;stroke-width:0.6534456"
         y="70.568298"
         x="27.743847"
         id="tspan1779"
         sodipodi:role="line">A</tspan></text>
    <text
       xml:space="preserve"
       style="font-style:normal;font-variant:normal;font-weight:normal;font-stretch:normal;font-size:13.9401741px;line-height:1.25;font-family:sans-serif;-inkscape-font-specification:'sans-serif, Normal';font-variant-ligatures:normal;font-variant-caps:normal;font-variant-numeric:normal;font-feature-settings:normal;text-align:center;letter-spacing:0px;word-spacing:0px;writing-mode:lr-tb;text-anchor:middle;fill:#ffffff;fill-opacity:1;stroke:none;stroke-width:0.6534456"
       x="55.449497"
       y="70.568298"
       id="letter-3"><tspan
         sodipodi:role="line"
         id="tspan1783"
         x="55.449497"
         y="70.568298"
         style="text-align:center;text-anchor:middle;fill:#ffffff;stroke-width:0.6534456">A</tspan></text>
  </g>
</svg>
